<mxfile host="Electron" modified="2023-05-07T19:43:54.264Z" agent="Mozilla/5.0 (X11; Linux x86_64) AppleWebKit/537.36 (KHTML, like Gecko) draw.io/21.2.8 Chrome/112.0.5615.165 Electron/24.2.0 Safari/537.36" etag="p2Ii1QdLHLrgcx_b2-e3" version="21.2.8" type="device">
  <diagram name="Page-1" id="6VFWpmYypYBMAtzLP3lg">
    <mxGraphModel dx="2266" dy="1971" grid="1" gridSize="10" guides="1" tooltips="1" connect="1" arrows="1" fold="1" page="1" pageScale="1" pageWidth="850" pageHeight="1100" math="0" shadow="0">
      <root>
        <mxCell id="0" />
        <mxCell id="1" parent="0" />
        <mxCell id="ApFiIjfhtV8WkyWTAPgR-68" value="" style="rounded=0;whiteSpace=wrap;html=1;" vertex="1" parent="1">
          <mxGeometry x="60" y="-440" width="620" height="780" as="geometry" />
        </mxCell>
        <mxCell id="ApFiIjfhtV8WkyWTAPgR-1" value="Criar postagem" style="ellipse;whiteSpace=wrap;html=1;" vertex="1" parent="1">
          <mxGeometry x="120" y="50" width="100" height="50" as="geometry" />
        </mxCell>
        <mxCell id="ApFiIjfhtV8WkyWTAPgR-2" value="Deletar postagem" style="ellipse;whiteSpace=wrap;html=1;" vertex="1" parent="1">
          <mxGeometry x="140" y="-170" width="100" height="50" as="geometry" />
        </mxCell>
        <mxCell id="ApFiIjfhtV8WkyWTAPgR-3" value="Editar postagem" style="ellipse;whiteSpace=wrap;html=1;" vertex="1" parent="1">
          <mxGeometry x="140" y="-280" width="100" height="50" as="geometry" />
        </mxCell>
        <mxCell id="ApFiIjfhtV8WkyWTAPgR-5" value="Receber descrição" style="ellipse;whiteSpace=wrap;html=1;" vertex="1" parent="1">
          <mxGeometry x="325" y="50" width="100" height="50" as="geometry" />
        </mxCell>
        <mxCell id="ApFiIjfhtV8WkyWTAPgR-6" value="Avaliar descrição" style="ellipse;whiteSpace=wrap;html=1;" vertex="1" parent="1">
          <mxGeometry x="320" y="210" width="110" height="50" as="geometry" />
        </mxCell>
        <mxCell id="ApFiIjfhtV8WkyWTAPgR-7" value="Melhorar descrição" style="ellipse;whiteSpace=wrap;html=1;" vertex="1" parent="1">
          <mxGeometry x="550" y="50" width="110" height="50" as="geometry" />
        </mxCell>
        <mxCell id="ApFiIjfhtV8WkyWTAPgR-8" value="" style="endArrow=classic;html=1;rounded=0;" edge="1" parent="1" source="ApFiIjfhtV8WkyWTAPgR-7" target="ApFiIjfhtV8WkyWTAPgR-6">
          <mxGeometry relative="1" as="geometry">
            <mxPoint x="500" y="340" as="sourcePoint" />
            <mxPoint x="600" y="340" as="targetPoint" />
          </mxGeometry>
        </mxCell>
        <mxCell id="ApFiIjfhtV8WkyWTAPgR-9" value="&amp;lt;&amp;lt;includes&amp;gt;&amp;gt;" style="edgeLabel;resizable=0;html=1;align=center;verticalAlign=middle;" connectable="0" vertex="1" parent="ApFiIjfhtV8WkyWTAPgR-8">
          <mxGeometry relative="1" as="geometry" />
        </mxCell>
        <mxCell id="ApFiIjfhtV8WkyWTAPgR-10" value="Receber descrição de imagem" style="ellipse;whiteSpace=wrap;html=1;" vertex="1" parent="1">
          <mxGeometry x="325" y="-80" width="100" height="50" as="geometry" />
        </mxCell>
        <mxCell id="ApFiIjfhtV8WkyWTAPgR-11" value="" style="endArrow=classic;html=1;rounded=0;" edge="1" parent="1" source="ApFiIjfhtV8WkyWTAPgR-1" target="ApFiIjfhtV8WkyWTAPgR-5">
          <mxGeometry relative="1" as="geometry">
            <mxPoint x="568" y="212" as="sourcePoint" />
            <mxPoint x="652" y="128" as="targetPoint" />
          </mxGeometry>
        </mxCell>
        <mxCell id="ApFiIjfhtV8WkyWTAPgR-12" value="&amp;lt;&amp;lt;includes&amp;gt;&amp;gt;" style="edgeLabel;resizable=0;html=1;align=center;verticalAlign=middle;" connectable="0" vertex="1" parent="ApFiIjfhtV8WkyWTAPgR-11">
          <mxGeometry relative="1" as="geometry" />
        </mxCell>
        <mxCell id="ApFiIjfhtV8WkyWTAPgR-15" value="" style="endArrow=classic;html=1;rounded=0;" edge="1" parent="1" source="ApFiIjfhtV8WkyWTAPgR-10" target="ApFiIjfhtV8WkyWTAPgR-5">
          <mxGeometry relative="1" as="geometry">
            <mxPoint x="409" y="137.18" as="sourcePoint" />
            <mxPoint x="530.3182005468859" y="129.99597243863803" as="targetPoint" />
          </mxGeometry>
        </mxCell>
        <mxCell id="ApFiIjfhtV8WkyWTAPgR-16" value="&amp;lt;&amp;lt;extends&amp;gt;&amp;gt;" style="edgeLabel;resizable=0;html=1;align=center;verticalAlign=middle;" connectable="0" vertex="1" parent="ApFiIjfhtV8WkyWTAPgR-15">
          <mxGeometry relative="1" as="geometry">
            <mxPoint x="-1" as="offset" />
          </mxGeometry>
        </mxCell>
        <mxCell id="ApFiIjfhtV8WkyWTAPgR-18" value="z" style="endArrow=classic;html=1;rounded=0;" edge="1" parent="1" source="ApFiIjfhtV8WkyWTAPgR-6" target="ApFiIjfhtV8WkyWTAPgR-5">
          <mxGeometry relative="1" as="geometry">
            <mxPoint x="530" y="85" as="sourcePoint" />
            <mxPoint x="420" y="85" as="targetPoint" />
          </mxGeometry>
        </mxCell>
        <mxCell id="ApFiIjfhtV8WkyWTAPgR-19" value="&amp;lt;&amp;lt;extends&amp;gt;&amp;gt;" style="edgeLabel;resizable=0;html=1;align=center;verticalAlign=middle;" connectable="0" vertex="1" parent="ApFiIjfhtV8WkyWTAPgR-18">
          <mxGeometry relative="1" as="geometry">
            <mxPoint x="-1" as="offset" />
          </mxGeometry>
        </mxCell>
        <mxCell id="ApFiIjfhtV8WkyWTAPgR-20" style="edgeStyle=orthogonalEdgeStyle;rounded=0;orthogonalLoop=1;jettySize=auto;html=1;exitX=0.5;exitY=1;exitDx=0;exitDy=0;" edge="1" parent="1" source="ApFiIjfhtV8WkyWTAPgR-1" target="ApFiIjfhtV8WkyWTAPgR-1">
          <mxGeometry relative="1" as="geometry" />
        </mxCell>
        <mxCell id="ApFiIjfhtV8WkyWTAPgR-21" value="z" style="endArrow=classic;html=1;rounded=0;" edge="1" parent="1" source="ApFiIjfhtV8WkyWTAPgR-7" target="ApFiIjfhtV8WkyWTAPgR-5">
          <mxGeometry relative="1" as="geometry">
            <mxPoint x="530" y="166" as="sourcePoint" />
            <mxPoint x="418" y="104" as="targetPoint" />
          </mxGeometry>
        </mxCell>
        <mxCell id="ApFiIjfhtV8WkyWTAPgR-22" value="&amp;lt;&amp;lt;extends&amp;gt;&amp;gt;" style="edgeLabel;resizable=0;html=1;align=center;verticalAlign=middle;" connectable="0" vertex="1" parent="ApFiIjfhtV8WkyWTAPgR-21">
          <mxGeometry relative="1" as="geometry">
            <mxPoint x="-1" as="offset" />
          </mxGeometry>
        </mxCell>
        <mxCell id="ApFiIjfhtV8WkyWTAPgR-23" value="Visualizar postagens" style="ellipse;whiteSpace=wrap;html=1;" vertex="1" parent="1">
          <mxGeometry x="140" y="-390" width="100" height="50" as="geometry" />
        </mxCell>
        <mxCell id="ApFiIjfhtV8WkyWTAPgR-24" value="Melhorar Imagem" style="ellipse;whiteSpace=wrap;html=1;" vertex="1" parent="1">
          <mxGeometry x="550" y="-210" width="110" height="50" as="geometry" />
        </mxCell>
        <mxCell id="ApFiIjfhtV8WkyWTAPgR-25" value="Gerar imagem" style="ellipse;whiteSpace=wrap;html=1;" vertex="1" parent="1">
          <mxGeometry x="550" y="-320" width="110" height="50" as="geometry" />
        </mxCell>
        <mxCell id="ApFiIjfhtV8WkyWTAPgR-26" value="" style="endArrow=classic;html=1;rounded=0;" edge="1" parent="1" source="ApFiIjfhtV8WkyWTAPgR-24" target="ApFiIjfhtV8WkyWTAPgR-10">
          <mxGeometry relative="1" as="geometry">
            <mxPoint x="575" y="85" as="sourcePoint" />
            <mxPoint x="435" y="85" as="targetPoint" />
          </mxGeometry>
        </mxCell>
        <mxCell id="ApFiIjfhtV8WkyWTAPgR-27" value="&amp;lt;&amp;lt;extends&amp;gt;&amp;gt;" style="edgeLabel;resizable=0;html=1;align=center;verticalAlign=middle;" connectable="0" vertex="1" parent="ApFiIjfhtV8WkyWTAPgR-26">
          <mxGeometry relative="1" as="geometry">
            <mxPoint x="-1" as="offset" />
          </mxGeometry>
        </mxCell>
        <mxCell id="ApFiIjfhtV8WkyWTAPgR-28" value="Gerar descrição" style="ellipse;whiteSpace=wrap;html=1;" vertex="1" parent="1">
          <mxGeometry x="550" y="200" width="110" height="50" as="geometry" />
        </mxCell>
        <mxCell id="ApFiIjfhtV8WkyWTAPgR-29" value="z" style="endArrow=classic;html=1;rounded=0;" edge="1" parent="1" source="ApFiIjfhtV8WkyWTAPgR-7" target="ApFiIjfhtV8WkyWTAPgR-28">
          <mxGeometry relative="1" as="geometry">
            <mxPoint x="460" y="300" as="sourcePoint" />
            <mxPoint x="385" y="110" as="targetPoint" />
          </mxGeometry>
        </mxCell>
        <mxCell id="ApFiIjfhtV8WkyWTAPgR-30" value="&amp;lt;&amp;lt;includes&amp;gt;&amp;gt;" style="edgeLabel;resizable=0;html=1;align=center;verticalAlign=middle;" connectable="0" vertex="1" parent="ApFiIjfhtV8WkyWTAPgR-29">
          <mxGeometry relative="1" as="geometry">
            <mxPoint x="-1" as="offset" />
          </mxGeometry>
        </mxCell>
        <mxCell id="ApFiIjfhtV8WkyWTAPgR-31" value="z" style="endArrow=classic;html=1;rounded=0;" edge="1" parent="1" source="ApFiIjfhtV8WkyWTAPgR-24" target="ApFiIjfhtV8WkyWTAPgR-25">
          <mxGeometry relative="1" as="geometry">
            <mxPoint x="415" y="270" as="sourcePoint" />
            <mxPoint x="415" y="340" as="targetPoint" />
          </mxGeometry>
        </mxCell>
        <mxCell id="ApFiIjfhtV8WkyWTAPgR-32" value="&amp;lt;&amp;lt;includes&amp;gt;&amp;gt;" style="edgeLabel;resizable=0;html=1;align=center;verticalAlign=middle;" connectable="0" vertex="1" parent="ApFiIjfhtV8WkyWTAPgR-31">
          <mxGeometry relative="1" as="geometry">
            <mxPoint x="-1" as="offset" />
          </mxGeometry>
        </mxCell>
        <mxCell id="ApFiIjfhtV8WkyWTAPgR-33" value="Avaliar Imagem" style="ellipse;whiteSpace=wrap;html=1;" vertex="1" parent="1">
          <mxGeometry x="550" y="-80" width="110" height="50" as="geometry" />
        </mxCell>
        <mxCell id="ApFiIjfhtV8WkyWTAPgR-34" value="" style="endArrow=classic;html=1;rounded=0;" edge="1" parent="1" source="ApFiIjfhtV8WkyWTAPgR-33" target="ApFiIjfhtV8WkyWTAPgR-10">
          <mxGeometry relative="1" as="geometry">
            <mxPoint x="625" y="-10" as="sourcePoint" />
            <mxPoint x="625" y="60" as="targetPoint" />
          </mxGeometry>
        </mxCell>
        <mxCell id="ApFiIjfhtV8WkyWTAPgR-35" value="&amp;lt;&amp;lt;extends&amp;gt;&amp;gt;" style="edgeLabel;resizable=0;html=1;align=center;verticalAlign=middle;" connectable="0" vertex="1" parent="ApFiIjfhtV8WkyWTAPgR-34">
          <mxGeometry relative="1" as="geometry">
            <mxPoint x="-1" as="offset" />
          </mxGeometry>
        </mxCell>
        <mxCell id="ApFiIjfhtV8WkyWTAPgR-36" value="Receber imagem" style="ellipse;whiteSpace=wrap;html=1;" vertex="1" parent="1">
          <mxGeometry x="325" y="-210" width="100" height="50" as="geometry" />
        </mxCell>
        <mxCell id="ApFiIjfhtV8WkyWTAPgR-37" value="" style="endArrow=classic;html=1;rounded=0;" edge="1" parent="1" source="ApFiIjfhtV8WkyWTAPgR-36" target="ApFiIjfhtV8WkyWTAPgR-10">
          <mxGeometry relative="1" as="geometry">
            <mxPoint x="560" y="-45" as="sourcePoint" />
            <mxPoint x="440" y="-45" as="targetPoint" />
          </mxGeometry>
        </mxCell>
        <mxCell id="ApFiIjfhtV8WkyWTAPgR-38" value="&amp;lt;&amp;lt;inherits&amp;gt;&amp;gt;" style="edgeLabel;resizable=0;html=1;align=center;verticalAlign=middle;" connectable="0" vertex="1" parent="ApFiIjfhtV8WkyWTAPgR-37">
          <mxGeometry relative="1" as="geometry">
            <mxPoint x="-1" as="offset" />
          </mxGeometry>
        </mxCell>
        <mxCell id="ApFiIjfhtV8WkyWTAPgR-39" value="" style="endArrow=classic;html=1;rounded=0;" edge="1" parent="1" source="ApFiIjfhtV8WkyWTAPgR-2" target="ApFiIjfhtV8WkyWTAPgR-3">
          <mxGeometry relative="1" as="geometry">
            <mxPoint x="571" y="-230" as="sourcePoint" />
            <mxPoint x="419" y="-146" as="targetPoint" />
          </mxGeometry>
        </mxCell>
        <mxCell id="ApFiIjfhtV8WkyWTAPgR-40" value="&amp;lt;&amp;lt;extends&amp;gt;&amp;gt;" style="edgeLabel;resizable=0;html=1;align=center;verticalAlign=middle;" connectable="0" vertex="1" parent="ApFiIjfhtV8WkyWTAPgR-39">
          <mxGeometry relative="1" as="geometry">
            <mxPoint x="-1" as="offset" />
          </mxGeometry>
        </mxCell>
        <mxCell id="ApFiIjfhtV8WkyWTAPgR-41" value="" style="endArrow=classic;html=1;rounded=0;" edge="1" parent="1" source="ApFiIjfhtV8WkyWTAPgR-3" target="ApFiIjfhtV8WkyWTAPgR-23">
          <mxGeometry relative="1" as="geometry">
            <mxPoint x="229" y="-185" as="sourcePoint" />
            <mxPoint x="80" y="-213" as="targetPoint" />
          </mxGeometry>
        </mxCell>
        <mxCell id="ApFiIjfhtV8WkyWTAPgR-42" value="&amp;lt;&amp;lt;includes&amp;gt;&amp;gt;" style="edgeLabel;resizable=0;html=1;align=center;verticalAlign=middle;" connectable="0" vertex="1" parent="ApFiIjfhtV8WkyWTAPgR-41">
          <mxGeometry relative="1" as="geometry">
            <mxPoint x="-1" as="offset" />
          </mxGeometry>
        </mxCell>
        <mxCell id="ApFiIjfhtV8WkyWTAPgR-43" value="Usuário" style="shape=umlActor;verticalLabelPosition=bottom;verticalAlign=top;html=1;outlineConnect=0;" vertex="1" parent="1">
          <mxGeometry x="-50" y="-100" width="50" height="110" as="geometry" />
        </mxCell>
        <mxCell id="ApFiIjfhtV8WkyWTAPgR-44" value="" style="endArrow=none;html=1;rounded=0;" edge="1" parent="1" source="ApFiIjfhtV8WkyWTAPgR-2" target="ApFiIjfhtV8WkyWTAPgR-43">
          <mxGeometry width="50" height="50" relative="1" as="geometry">
            <mxPoint x="70" y="30" as="sourcePoint" />
            <mxPoint x="120" y="-20" as="targetPoint" />
          </mxGeometry>
        </mxCell>
        <mxCell id="ApFiIjfhtV8WkyWTAPgR-45" value="" style="endArrow=none;html=1;rounded=0;" edge="1" parent="1" source="ApFiIjfhtV8WkyWTAPgR-43" target="ApFiIjfhtV8WkyWTAPgR-1">
          <mxGeometry width="50" height="50" relative="1" as="geometry">
            <mxPoint x="-70" y="190" as="sourcePoint" />
            <mxPoint x="-20" y="140" as="targetPoint" />
          </mxGeometry>
        </mxCell>
        <mxCell id="ApFiIjfhtV8WkyWTAPgR-46" value="" style="endArrow=none;html=1;rounded=0;" edge="1" parent="1" source="ApFiIjfhtV8WkyWTAPgR-3" target="ApFiIjfhtV8WkyWTAPgR-43">
          <mxGeometry width="50" height="50" relative="1" as="geometry">
            <mxPoint x="100" y="-12" as="sourcePoint" />
            <mxPoint x="-70" y="-1" as="targetPoint" />
          </mxGeometry>
        </mxCell>
        <mxCell id="ApFiIjfhtV8WkyWTAPgR-47" value="" style="endArrow=none;html=1;rounded=0;" edge="1" parent="1" source="ApFiIjfhtV8WkyWTAPgR-23" target="ApFiIjfhtV8WkyWTAPgR-43">
          <mxGeometry width="50" height="50" relative="1" as="geometry">
            <mxPoint x="110" y="-2" as="sourcePoint" />
            <mxPoint x="-60" y="9" as="targetPoint" />
          </mxGeometry>
        </mxCell>
        <mxCell id="ApFiIjfhtV8WkyWTAPgR-48" value="" style="endArrow=none;html=1;rounded=0;" edge="1" parent="1" source="ApFiIjfhtV8WkyWTAPgR-43" target="ApFiIjfhtV8WkyWTAPgR-5">
          <mxGeometry width="50" height="50" relative="1" as="geometry">
            <mxPoint x="-70" y="5" as="sourcePoint" />
            <mxPoint x="109" y="70" as="targetPoint" />
          </mxGeometry>
        </mxCell>
        <mxCell id="ApFiIjfhtV8WkyWTAPgR-49" value="" style="endArrow=none;html=1;rounded=0;" edge="1" parent="1" source="ApFiIjfhtV8WkyWTAPgR-43" target="ApFiIjfhtV8WkyWTAPgR-10">
          <mxGeometry width="50" height="50" relative="1" as="geometry">
            <mxPoint x="-70" y="3" as="sourcePoint" />
            <mxPoint x="338" y="76" as="targetPoint" />
            <Array as="points" />
          </mxGeometry>
        </mxCell>
        <mxCell id="ApFiIjfhtV8WkyWTAPgR-50" value="" style="endArrow=none;html=1;rounded=0;" edge="1" parent="1" source="ApFiIjfhtV8WkyWTAPgR-43" target="ApFiIjfhtV8WkyWTAPgR-36">
          <mxGeometry width="50" height="50" relative="1" as="geometry">
            <mxPoint x="-85" as="sourcePoint" />
            <mxPoint x="336" y="-40" as="targetPoint" />
            <Array as="points">
              <mxPoint x="200" y="-70" />
            </Array>
          </mxGeometry>
        </mxCell>
        <mxCell id="ApFiIjfhtV8WkyWTAPgR-57" value="Inteligência &lt;br&gt;Artificial" style="shape=umlActor;verticalLabelPosition=bottom;verticalAlign=top;html=1;outlineConnect=0;" vertex="1" parent="1">
          <mxGeometry x="733" y="-93" width="50" height="110" as="geometry" />
        </mxCell>
        <mxCell id="ApFiIjfhtV8WkyWTAPgR-58" value="" style="endArrow=none;html=1;rounded=0;" edge="1" parent="1" source="ApFiIjfhtV8WkyWTAPgR-33" target="ApFiIjfhtV8WkyWTAPgR-57">
          <mxGeometry width="50" height="50" relative="1" as="geometry">
            <mxPoint x="430" y="10" as="sourcePoint" />
            <mxPoint x="480" y="-40" as="targetPoint" />
          </mxGeometry>
        </mxCell>
        <mxCell id="ApFiIjfhtV8WkyWTAPgR-59" value="" style="endArrow=none;html=1;rounded=0;" edge="1" parent="1" source="ApFiIjfhtV8WkyWTAPgR-24" target="ApFiIjfhtV8WkyWTAPgR-57">
          <mxGeometry width="50" height="50" relative="1" as="geometry">
            <mxPoint x="669" y="-41" as="sourcePoint" />
            <mxPoint x="840" y="-27" as="targetPoint" />
          </mxGeometry>
        </mxCell>
        <mxCell id="ApFiIjfhtV8WkyWTAPgR-60" value="" style="endArrow=none;html=1;rounded=0;" edge="1" parent="1" source="ApFiIjfhtV8WkyWTAPgR-25" target="ApFiIjfhtV8WkyWTAPgR-57">
          <mxGeometry width="50" height="50" relative="1" as="geometry">
            <mxPoint x="648" y="-155" as="sourcePoint" />
            <mxPoint x="840" y="-40" as="targetPoint" />
          </mxGeometry>
        </mxCell>
        <mxCell id="ApFiIjfhtV8WkyWTAPgR-61" value="" style="endArrow=none;html=1;rounded=0;" edge="1" parent="1" source="ApFiIjfhtV8WkyWTAPgR-6">
          <mxGeometry width="50" height="50" relative="1" as="geometry">
            <mxPoint x="669" y="-41" as="sourcePoint" />
            <mxPoint x="760" y="50" as="targetPoint" />
            <Array as="points">
              <mxPoint x="460" y="300" />
              <mxPoint x="760" y="300" />
              <mxPoint x="760" y="150" />
            </Array>
          </mxGeometry>
        </mxCell>
        <mxCell id="ApFiIjfhtV8WkyWTAPgR-63" value="" style="endArrow=none;html=1;rounded=0;" edge="1" parent="1" source="ApFiIjfhtV8WkyWTAPgR-7" target="ApFiIjfhtV8WkyWTAPgR-57">
          <mxGeometry width="50" height="50" relative="1" as="geometry">
            <mxPoint x="430" y="160" as="sourcePoint" />
            <mxPoint x="480" y="110" as="targetPoint" />
          </mxGeometry>
        </mxCell>
        <mxCell id="ApFiIjfhtV8WkyWTAPgR-67" value="" style="endArrow=none;html=1;rounded=0;" edge="1" parent="1" source="ApFiIjfhtV8WkyWTAPgR-28" target="ApFiIjfhtV8WkyWTAPgR-57">
          <mxGeometry width="50" height="50" relative="1" as="geometry">
            <mxPoint x="430" y="60" as="sourcePoint" />
            <mxPoint x="480" y="10" as="targetPoint" />
          </mxGeometry>
        </mxCell>
        <mxCell id="ApFiIjfhtV8WkyWTAPgR-70" value="Gernciar Postagens" style="text;html=1;strokeColor=none;fillColor=none;align=center;verticalAlign=middle;whiteSpace=wrap;rounded=0;" vertex="1" parent="1">
          <mxGeometry x="60" y="-440" width="150" height="40" as="geometry" />
        </mxCell>
      </root>
    </mxGraphModel>
  </diagram>
</mxfile>
